<mxfile host="Electron" modified="2024-08-17T14:50:38.171Z" agent="Mozilla/5.0 (Windows NT 10.0; Win64; x64) AppleWebKit/537.36 (KHTML, like Gecko) draw.io/24.1.0 Chrome/120.0.6099.109 Electron/28.1.0 Safari/537.36" etag="uqYGsHHas6L8O4QYJLgU" version="24.1.0" type="device">
  <diagram id="C5RBs43oDa-KdzZeNtuy" name="Page-1">
    <mxGraphModel dx="1247" dy="727" grid="1" gridSize="10" guides="1" tooltips="1" connect="1" arrows="1" fold="1" page="1" pageScale="1" pageWidth="827" pageHeight="1169" math="0" shadow="0">
      <root>
        <mxCell id="WIyWlLk6GJQsqaUBKTNV-0" />
        <mxCell id="WIyWlLk6GJQsqaUBKTNV-1" parent="WIyWlLk6GJQsqaUBKTNV-0" />
        <mxCell id="ip3aoKd4T66MhbG_ci6H-11" style="edgeStyle=orthogonalEdgeStyle;rounded=0;orthogonalLoop=1;jettySize=auto;html=1;exitX=1;exitY=0.5;exitDx=0;exitDy=0;entryX=0;entryY=0.5;entryDx=0;entryDy=0;" edge="1" parent="WIyWlLk6GJQsqaUBKTNV-1" source="ip3aoKd4T66MhbG_ci6H-0" target="ip3aoKd4T66MhbG_ci6H-1">
          <mxGeometry relative="1" as="geometry" />
        </mxCell>
        <mxCell id="ip3aoKd4T66MhbG_ci6H-0" value="Login vorhanden" style="rounded=1;whiteSpace=wrap;html=1;" vertex="1" parent="WIyWlLk6GJQsqaUBKTNV-1">
          <mxGeometry x="380" y="390" width="120" height="60" as="geometry" />
        </mxCell>
        <mxCell id="ip3aoKd4T66MhbG_ci6H-10" style="edgeStyle=orthogonalEdgeStyle;rounded=0;orthogonalLoop=1;jettySize=auto;html=1;exitX=0.5;exitY=0;exitDx=0;exitDy=0;entryX=0.5;entryY=1;entryDx=0;entryDy=0;" edge="1" parent="WIyWlLk6GJQsqaUBKTNV-1" source="ip3aoKd4T66MhbG_ci6H-1" target="ip3aoKd4T66MhbG_ci6H-6">
          <mxGeometry relative="1" as="geometry" />
        </mxCell>
        <mxCell id="ip3aoKd4T66MhbG_ci6H-14" value="[User]" style="edgeLabel;html=1;align=center;verticalAlign=middle;resizable=0;points=[];" vertex="1" connectable="0" parent="ip3aoKd4T66MhbG_ci6H-10">
          <mxGeometry x="-0.155" relative="1" as="geometry">
            <mxPoint as="offset" />
          </mxGeometry>
        </mxCell>
        <mxCell id="ip3aoKd4T66MhbG_ci6H-12" style="edgeStyle=orthogonalEdgeStyle;rounded=0;orthogonalLoop=1;jettySize=auto;html=1;exitX=0.5;exitY=1;exitDx=0;exitDy=0;entryX=0.5;entryY=0;entryDx=0;entryDy=0;" edge="1" parent="WIyWlLk6GJQsqaUBKTNV-1" source="ip3aoKd4T66MhbG_ci6H-1" target="ip3aoKd4T66MhbG_ci6H-3">
          <mxGeometry relative="1" as="geometry" />
        </mxCell>
        <mxCell id="ip3aoKd4T66MhbG_ci6H-13" value="[Admin]" style="edgeLabel;html=1;align=center;verticalAlign=middle;resizable=0;points=[];" vertex="1" connectable="0" parent="ip3aoKd4T66MhbG_ci6H-12">
          <mxGeometry x="-0.27" relative="1" as="geometry">
            <mxPoint as="offset" />
          </mxGeometry>
        </mxCell>
        <mxCell id="ip3aoKd4T66MhbG_ci6H-1" value="Login als" style="rhombus;whiteSpace=wrap;html=1;fontSize=10;" vertex="1" parent="WIyWlLk6GJQsqaUBKTNV-1">
          <mxGeometry x="560" y="390" width="60" height="60" as="geometry" />
        </mxCell>
        <mxCell id="ip3aoKd4T66MhbG_ci6H-27" style="edgeStyle=orthogonalEdgeStyle;rounded=0;orthogonalLoop=1;jettySize=auto;html=1;exitX=0.5;exitY=1;exitDx=0;exitDy=0;entryX=0.5;entryY=0;entryDx=0;entryDy=0;" edge="1" parent="WIyWlLk6GJQsqaUBKTNV-1" source="ip3aoKd4T66MhbG_ci6H-3" target="ip3aoKd4T66MhbG_ci6H-26">
          <mxGeometry relative="1" as="geometry" />
        </mxCell>
        <mxCell id="ip3aoKd4T66MhbG_ci6H-3" value="Admin-Landingpage" style="rounded=1;whiteSpace=wrap;html=1;" vertex="1" parent="WIyWlLk6GJQsqaUBKTNV-1">
          <mxGeometry x="530" y="500" width="120" height="60" as="geometry" />
        </mxCell>
        <mxCell id="ip3aoKd4T66MhbG_ci6H-37" style="edgeStyle=orthogonalEdgeStyle;rounded=0;orthogonalLoop=1;jettySize=auto;html=1;exitX=0;exitY=0.5;exitDx=0;exitDy=0;entryX=1;entryY=0.5;entryDx=0;entryDy=0;" edge="1" parent="WIyWlLk6GJQsqaUBKTNV-1" source="ip3aoKd4T66MhbG_ci6H-6" target="ip3aoKd4T66MhbG_ci6H-36">
          <mxGeometry relative="1" as="geometry" />
        </mxCell>
        <mxCell id="ip3aoKd4T66MhbG_ci6H-6" value="User-Landingpage" style="rounded=1;whiteSpace=wrap;html=1;" vertex="1" parent="WIyWlLk6GJQsqaUBKTNV-1">
          <mxGeometry x="530" y="280" width="120" height="60" as="geometry" />
        </mxCell>
        <mxCell id="ip3aoKd4T66MhbG_ci6H-17" style="edgeStyle=orthogonalEdgeStyle;rounded=0;orthogonalLoop=1;jettySize=auto;html=1;exitX=1;exitY=0.5;exitDx=0;exitDy=0;entryX=0;entryY=0.5;entryDx=0;entryDy=0;" edge="1" parent="WIyWlLk6GJQsqaUBKTNV-1" source="ip3aoKd4T66MhbG_ci6H-15" target="ip3aoKd4T66MhbG_ci6H-16">
          <mxGeometry relative="1" as="geometry" />
        </mxCell>
        <mxCell id="ip3aoKd4T66MhbG_ci6H-15" value="User auf Login-Seite" style="rounded=1;whiteSpace=wrap;html=1;" vertex="1" parent="WIyWlLk6GJQsqaUBKTNV-1">
          <mxGeometry x="40" y="390" width="120" height="60" as="geometry" />
        </mxCell>
        <mxCell id="ip3aoKd4T66MhbG_ci6H-18" style="edgeStyle=orthogonalEdgeStyle;rounded=0;orthogonalLoop=1;jettySize=auto;html=1;exitX=1;exitY=0.5;exitDx=0;exitDy=0;entryX=0;entryY=0.5;entryDx=0;entryDy=0;" edge="1" parent="WIyWlLk6GJQsqaUBKTNV-1" source="ip3aoKd4T66MhbG_ci6H-16" target="ip3aoKd4T66MhbG_ci6H-0">
          <mxGeometry relative="1" as="geometry" />
        </mxCell>
        <mxCell id="ip3aoKd4T66MhbG_ci6H-19" value="[ja]" style="edgeLabel;html=1;align=center;verticalAlign=middle;resizable=0;points=[];" vertex="1" connectable="0" parent="ip3aoKd4T66MhbG_ci6H-18">
          <mxGeometry x="0.0081" y="2" relative="1" as="geometry">
            <mxPoint as="offset" />
          </mxGeometry>
        </mxCell>
        <mxCell id="ip3aoKd4T66MhbG_ci6H-21" style="edgeStyle=orthogonalEdgeStyle;rounded=0;orthogonalLoop=1;jettySize=auto;html=1;exitX=0.5;exitY=1;exitDx=0;exitDy=0;entryX=0.5;entryY=0;entryDx=0;entryDy=0;" edge="1" parent="WIyWlLk6GJQsqaUBKTNV-1" source="ip3aoKd4T66MhbG_ci6H-16" target="ip3aoKd4T66MhbG_ci6H-20">
          <mxGeometry relative="1" as="geometry" />
        </mxCell>
        <mxCell id="ip3aoKd4T66MhbG_ci6H-22" value="[nein]" style="edgeLabel;html=1;align=center;verticalAlign=middle;resizable=0;points=[];" vertex="1" connectable="0" parent="ip3aoKd4T66MhbG_ci6H-21">
          <mxGeometry x="0.4266" y="1" relative="1" as="geometry">
            <mxPoint x="-1" y="-16" as="offset" />
          </mxGeometry>
        </mxCell>
        <mxCell id="ip3aoKd4T66MhbG_ci6H-16" value="registriert?" style="rhombus;whiteSpace=wrap;html=1;fontSize=10;" vertex="1" parent="WIyWlLk6GJQsqaUBKTNV-1">
          <mxGeometry x="260" y="390" width="60" height="60" as="geometry" />
        </mxCell>
        <mxCell id="ip3aoKd4T66MhbG_ci6H-24" style="edgeStyle=orthogonalEdgeStyle;rounded=0;orthogonalLoop=1;jettySize=auto;html=1;exitX=0;exitY=0.5;exitDx=0;exitDy=0;entryX=1;entryY=0.5;entryDx=0;entryDy=0;" edge="1" parent="WIyWlLk6GJQsqaUBKTNV-1" source="ip3aoKd4T66MhbG_ci6H-20" target="ip3aoKd4T66MhbG_ci6H-23">
          <mxGeometry relative="1" as="geometry" />
        </mxCell>
        <mxCell id="ip3aoKd4T66MhbG_ci6H-20" value="kein Login vorhanden" style="rounded=1;whiteSpace=wrap;html=1;" vertex="1" parent="WIyWlLk6GJQsqaUBKTNV-1">
          <mxGeometry x="230" y="500" width="120" height="60" as="geometry" />
        </mxCell>
        <mxCell id="ip3aoKd4T66MhbG_ci6H-25" style="edgeStyle=orthogonalEdgeStyle;rounded=0;orthogonalLoop=1;jettySize=auto;html=1;exitX=0.5;exitY=0;exitDx=0;exitDy=0;entryX=0.5;entryY=1;entryDx=0;entryDy=0;" edge="1" parent="WIyWlLk6GJQsqaUBKTNV-1" source="ip3aoKd4T66MhbG_ci6H-23" target="ip3aoKd4T66MhbG_ci6H-15">
          <mxGeometry relative="1" as="geometry" />
        </mxCell>
        <mxCell id="ip3aoKd4T66MhbG_ci6H-23" value="Selbstregistrierung" style="rounded=1;whiteSpace=wrap;html=1;" vertex="1" parent="WIyWlLk6GJQsqaUBKTNV-1">
          <mxGeometry x="40" y="500" width="120" height="60" as="geometry" />
        </mxCell>
        <mxCell id="ip3aoKd4T66MhbG_ci6H-31" style="edgeStyle=orthogonalEdgeStyle;rounded=0;orthogonalLoop=1;jettySize=auto;html=1;exitX=0.5;exitY=1;exitDx=0;exitDy=0;entryX=0.5;entryY=0;entryDx=0;entryDy=0;" edge="1" parent="WIyWlLk6GJQsqaUBKTNV-1" source="ip3aoKd4T66MhbG_ci6H-26" target="ip3aoKd4T66MhbG_ci6H-29">
          <mxGeometry relative="1" as="geometry" />
        </mxCell>
        <mxCell id="ip3aoKd4T66MhbG_ci6H-32" style="edgeStyle=orthogonalEdgeStyle;rounded=0;orthogonalLoop=1;jettySize=auto;html=1;exitX=0;exitY=0.5;exitDx=0;exitDy=0;entryX=0.5;entryY=0;entryDx=0;entryDy=0;" edge="1" parent="WIyWlLk6GJQsqaUBKTNV-1" source="ip3aoKd4T66MhbG_ci6H-26" target="ip3aoKd4T66MhbG_ci6H-28">
          <mxGeometry relative="1" as="geometry" />
        </mxCell>
        <mxCell id="ip3aoKd4T66MhbG_ci6H-33" style="edgeStyle=orthogonalEdgeStyle;rounded=0;orthogonalLoop=1;jettySize=auto;html=1;exitX=1;exitY=0.5;exitDx=0;exitDy=0;entryX=0.5;entryY=0;entryDx=0;entryDy=0;" edge="1" parent="WIyWlLk6GJQsqaUBKTNV-1" source="ip3aoKd4T66MhbG_ci6H-26" target="ip3aoKd4T66MhbG_ci6H-30">
          <mxGeometry relative="1" as="geometry" />
        </mxCell>
        <mxCell id="ip3aoKd4T66MhbG_ci6H-26" value="Funktion" style="rhombus;whiteSpace=wrap;html=1;fontSize=10;" vertex="1" parent="WIyWlLk6GJQsqaUBKTNV-1">
          <mxGeometry x="410" y="600" width="60" height="60" as="geometry" />
        </mxCell>
        <mxCell id="ip3aoKd4T66MhbG_ci6H-28" value="Nutzerverwaltung" style="rounded=1;whiteSpace=wrap;html=1;" vertex="1" parent="WIyWlLk6GJQsqaUBKTNV-1">
          <mxGeometry x="230" y="680" width="120" height="60" as="geometry" />
        </mxCell>
        <mxCell id="ip3aoKd4T66MhbG_ci6H-29" value="Medienverwaltung" style="rounded=1;whiteSpace=wrap;html=1;" vertex="1" parent="WIyWlLk6GJQsqaUBKTNV-1">
          <mxGeometry x="380" y="680" width="120" height="60" as="geometry" />
        </mxCell>
        <mxCell id="ip3aoKd4T66MhbG_ci6H-30" value="Schlagworverwaltung" style="rounded=1;whiteSpace=wrap;html=1;" vertex="1" parent="WIyWlLk6GJQsqaUBKTNV-1">
          <mxGeometry x="530" y="680" width="120" height="60" as="geometry" />
        </mxCell>
        <mxCell id="ip3aoKd4T66MhbG_ci6H-34" value="Medienverwaltung" style="rounded=1;whiteSpace=wrap;html=1;" vertex="1" parent="WIyWlLk6GJQsqaUBKTNV-1">
          <mxGeometry x="380" y="170" width="120" height="60" as="geometry" />
        </mxCell>
        <mxCell id="ip3aoKd4T66MhbG_ci6H-35" value="Schlagworverwaltung" style="rounded=1;whiteSpace=wrap;html=1;" vertex="1" parent="WIyWlLk6GJQsqaUBKTNV-1">
          <mxGeometry x="230" y="280" width="120" height="60" as="geometry" />
        </mxCell>
        <mxCell id="ip3aoKd4T66MhbG_ci6H-38" style="edgeStyle=orthogonalEdgeStyle;rounded=0;orthogonalLoop=1;jettySize=auto;html=1;exitX=0;exitY=0.5;exitDx=0;exitDy=0;entryX=1;entryY=0.5;entryDx=0;entryDy=0;" edge="1" parent="WIyWlLk6GJQsqaUBKTNV-1" source="ip3aoKd4T66MhbG_ci6H-36" target="ip3aoKd4T66MhbG_ci6H-35">
          <mxGeometry relative="1" as="geometry" />
        </mxCell>
        <mxCell id="ip3aoKd4T66MhbG_ci6H-39" style="edgeStyle=orthogonalEdgeStyle;rounded=0;orthogonalLoop=1;jettySize=auto;html=1;exitX=0.5;exitY=0;exitDx=0;exitDy=0;entryX=0.5;entryY=1;entryDx=0;entryDy=0;" edge="1" parent="WIyWlLk6GJQsqaUBKTNV-1" source="ip3aoKd4T66MhbG_ci6H-36" target="ip3aoKd4T66MhbG_ci6H-34">
          <mxGeometry relative="1" as="geometry" />
        </mxCell>
        <mxCell id="ip3aoKd4T66MhbG_ci6H-36" value="Funktion" style="rhombus;whiteSpace=wrap;html=1;fontSize=10;" vertex="1" parent="WIyWlLk6GJQsqaUBKTNV-1">
          <mxGeometry x="410" y="280" width="60" height="60" as="geometry" />
        </mxCell>
      </root>
    </mxGraphModel>
  </diagram>
</mxfile>
